<?xml version="1.0" encoding="UTF-8"?>
<svg width="10px" height="10px" viewBox="0 0 10 10" version="1.1" xmlns="http://www.w3.org/2000/svg" xmlns:xlink="http://www.w3.org/1999/xlink">
    <!-- Generator: Sketch 47.1 (45422) - http://www.bohemiancoding.com/sketch -->
    <title>icons</title>
    <desc>Created with Sketch.</desc>
    <defs></defs>
    <g id="Page-1" stroke="none" stroke-width="1" fill="none" fill-rule="evenodd">
        <g id="icons" fill-rule="nonzero" fill="#FFFFFF">
            <path d="M9.94666514,3.9631033 C9.91475843,3.82263352 9.84893831,3.6921973 9.79475711,3.56055705 C9.76184704,3.4802886 9.68880276,3.40905035 9.65207995,3.32195909 C9.63883565,3.22302823 9.55736318,3.16383025 9.51281419,3.08316046 L9.51281419,3.08316046 C9.51441856,3.08053454 9.51489719,3.07737292 9.51414196,3.07438978 C9.51338674,3.07140664 9.51146137,3.06885364 9.50880077,3.06730745 C9.51226003,3.04716415 9.5050475,3.02666537 9.48973701,3.01312625 C9.38619072,2.91279069 9.36010347,2.78315715 9.34404978,2.6473028 C9.33883234,2.60375717 9.31936724,2.55780349 9.27020281,2.53813772 L9.27020281,2.53813772 C9.27461758,2.51646524 9.278631,2.49479276 9.25234308,2.48295316 C9.19214175,2.40730015 9.1056525,2.43238404 9.02859479,2.42034377 L9.02859479,2.42034377 C8.92243977,2.43539411 8.81548207,2.42395585 8.70992906,2.43138068 C8.67641699,2.43378874 8.62042974,2.40509277 8.59735257,2.46228404 L8.59735257,2.46228404 C8.44624722,2.45806994 8.30517542,2.48937464 8.18096,2.58007798 L8.18096,2.58007798 C8.03888485,2.64148334 7.88958554,2.68161756 7.74149026,2.72496252 C7.67847953,2.73620011 7.6106527,2.73098266 7.55928089,2.78054842 L7.55928089,2.78054842 C7.46616949,2.81566587 7.3640279,2.82549875 7.27834133,2.88088398 C7.22636751,2.87847593 7.17258765,2.87024841 7.13646685,2.92222223 L7.13646685,2.92222223 C7.08870713,2.89513163 7.09833934,2.8473719 7.10676753,2.81004708 C7.11900846,2.75546453 7.13385813,2.70268803 7.12262054,2.64650012 C7.16937691,2.48596323 7.19325678,2.31900486 7.21773865,2.15565857 C7.24783932,1.95498746 7.25345811,1.75010225 7.30763931,1.55224053 C7.31265609,1.53418013 7.30161918,1.52093584 7.28235475,1.51652107 L7.28235475,1.51652107 L7.28235475,1.40615196 C7.32630173,1.27651842 7.33051582,1.14206877 7.3341279,1.00681644 C7.33874334,0.838252704 7.28556549,0.754372178 7.1222192,0.698384937 C7.03552928,0.668685612 6.94522728,0.649019843 6.87960782,0.577982268 C6.79733267,0.534436637 6.69519107,0.539654086 6.62234746,0.473031276 L6.62234746,0.473031276 C6.59465484,0.452964164 6.57799914,0.418448732 6.5386676,0.41624135 C6.45057298,0.38915075 6.36508709,0.371090349 6.28241059,0.312293713 C6.22923274,0.274567543 6.14836228,0.206740706 6.05565223,0.234031978 C6.02587796,0.242118953 5.9941682,0.231416908 5.97538378,0.206941377 C5.88989789,0.0981776333 5.75625092,0.0742977706 5.6424704,0.0163038185 C5.57644961,-0.0172082577 5.52026169,0.000250129323 5.49136505,0.0751004551 C5.45363888,0.117040718 5.48313754,0.16781051 5.47350532,0.213362853 C5.47044626,0.221106995 5.468749,0.229321691 5.46848855,0.237644058 C5.44842143,0.319718544 5.4243409,0.400589003 5.4181201,0.486676911 C5.40888923,0.611093002 5.4361805,0.737515805 5.39604627,0.859724514 C5.39198826,0.863541204 5.39085357,0.869538857 5.39323688,0.874574176 C5.36835366,0.892835247 5.37316977,0.921932559 5.36634695,0.946815777 C5.31858722,1.12180099 5.30614561,1.30300701 5.27002481,1.4801996 C5.2499577,1.52514993 5.25657985,1.57351167 5.2527671,1.62066938 L5.25818522,1.62448213 L5.25818522,1.62448213 L5.25818522,1.62448213 L5.2527671,1.62026804 C5.22447247,1.64675663 5.23169663,1.68046937 5.23269999,1.71398145 L5.23269999,1.71398145 C5.21070565,1.73032935 5.19964215,1.75756258 5.20400402,1.78461768 C5.22868656,1.86889955 5.19136174,1.94756263 5.18855234,2.02863376 C5.18574295,2.10488878 5.12674564,2.16910354 5.15142819,2.24937198 L5.15142819,2.24937198 L5.13637785,2.28388741 C5.09885235,2.32402164 5.12774899,2.39907263 5.0603235,2.42214981 C5.05257539,2.40697592 5.03570052,2.39878424 5.01898525,2.4020827 L5.01898525,2.4020827 C5.01887066,2.39581179 5.01618642,2.38986295 5.01156042,2.38562767 L5.01156042,2.38562767 C4.98426915,2.35994177 4.95637586,2.33586123 4.91463627,2.34348674 L4.89456916,2.32341962 L4.71978462,2.16850152 C4.65958328,2.11612636 4.60540208,2.07659415 4.51188934,2.08301563 C4.4496813,2.08722972 4.33670346,2.07378476 4.36600144,1.94134182 C4.37583433,1.89659216 4.3294793,1.8845519 4.29014776,1.88615727 C4.25824105,1.88736129 4.22533099,1.90622438 4.19603301,1.87833109 L4.19603301,1.87833109 C4.14064778,1.82394922 4.08486121,1.76996869 4.00419142,1.753915 C4.03569679,1.81812976 4.13743704,1.84080559 4.09449342,1.93833175 L3.96967599,1.88635794 C3.92693304,1.86428411 3.95161559,1.79485191 3.89602969,1.78180829 C3.84044379,1.73605527 3.80893843,1.64474991 3.70900421,1.68327877 L3.67629482,1.63872978 L3.67629482,1.63872978 C3.64048596,1.60207663 3.59806778,1.57252689 3.55127672,1.55163852 C3.54224652,1.59297677 3.55328343,1.63190696 3.52819954,1.66040226 C3.49890156,1.68849622 3.51355055,1.69953313 3.54505591,1.70394789 L3.54505591,1.70394789 L3.57054114,1.74107205 C3.56070826,1.80127338 3.47622572,1.79866466 3.46920223,1.86147472 C3.46559015,1.87572237 3.44130895,1.88655861 3.4617774,1.90502035 C3.46739619,1.93331498 3.44893445,1.93833175 3.42766331,1.94073981 L3.42766331,1.94073981 C3.37267942,1.94977001 3.33635795,1.92388343 3.31147473,1.87752841 L3.31147473,1.87752841 L3.29421702,1.85946801 L3.29421702,1.85946801 L3.32893312,1.8004707 L3.32893312,1.74187473 C3.3311405,1.70755997 3.29120695,1.67765998 3.31829755,1.64153918 L3.31829755,1.64153918 C3.35381634,1.60140495 3.35502037,1.54983248 3.37107406,1.50307611 C3.3895358,1.49163785 3.39876667,1.47558416 3.38612439,1.45631974 C3.37348211,1.43705531 3.36003714,1.44829289 3.34839822,1.46013249 L3.34839822,1.46013249 L3.31127406,1.52033382 C3.25990226,1.55324389 3.27435058,1.62588683 3.22639018,1.6608036 L3.22639018,1.6608036 C3.19669086,1.67204119 3.16016871,1.67906467 3.18625596,1.72481769 L3.18625596,1.72481769 L3.23060428,1.76013581 L3.20893179,1.78341365 L3.20893179,1.78341365 C3.1797577,1.79974739 3.14419181,1.79974739 3.11501771,1.78341365 C3.09032202,1.76713466 3.05797469,1.76850942 3.03474927,1.78682506 C3.03274195,1.78751199 3.03089761,1.78860494 3.02933115,1.7900358 C3.02050162,1.79404922 3.01307679,1.7900358 3.00645464,1.78180829 C2.99822712,1.73966735 2.95448082,1.74167406 2.9295976,1.72160695 C2.90551095,1.6882873 2.86865703,1.66648024 2.82785735,1.66140562 C2.74036474,1.62809421 2.73574931,1.62929824 2.73695333,1.68528548 L2.73695333,1.68528548 L2.76725467,1.72301165 C2.74718756,1.79665795 2.70143455,1.75030292 2.66451106,1.74508547 C2.63280502,1.73164051 2.61113254,1.69732575 2.57139966,1.70073716 C2.50196746,1.61665596 2.39079566,1.64615461 2.30591178,1.6018063 L2.22564333,1.58173918 C2.18149569,1.55324389 2.13152858,1.53177208 2.10664536,1.48140363 L2.10664536,1.48140363 C2.09781583,1.44006538 2.07714671,1.40916203 2.03179504,1.40414525 C2.0181494,1.40274055 2.00871786,1.41297478 2.00731316,1.42822578 C2.00388652,1.46460308 2.02108109,1.49984419 2.05186215,1.51953114 L2.08256483,1.54321033 L2.08256483,1.54321033 C2.06992255,1.56327744 2.11226415,1.61785998 2.04463799,1.60341166 C2.01714604,1.56187274 1.98443665,1.53016671 1.92885075,1.53879557 L1.92885075,1.53879557 C1.91339908,1.50307611 1.90176015,1.45270766 1.85921788,1.52053449 L1.85921788,1.52053449 C1.80443466,1.4892298 1.7416246,1.52896268 1.68644005,1.50046738 L1.68644005,1.50046738 C1.66533124,1.4653905 1.62836331,1.44289481 1.58750919,1.44026605 L1.58750919,1.44026605 C1.50724074,1.39411169 1.45867833,1.4322392 1.42135351,1.50167141 C1.40061682,1.52406819 1.38669469,1.55191244 1.38121928,1.58193986 C1.33446291,1.59177274 1.29513137,1.6108365 1.28088373,1.6622083 L1.28088373,1.6622083 C1.25760588,1.68227541 1.22790655,1.68087071 1.20061528,1.68568682 L1.20061528,1.68568682 C1.14723676,1.66260964 1.09365758,1.64053582 1.04007839,1.61645529 C1.00395759,1.60000026 0.969241484,1.5781271 0.937334777,1.62247542 L0.937334777,1.62247542 C0.87312002,1.67163984 0.889173709,1.73123916 0.931916657,1.77679151 C0.97897222,1.8313263 1.03658594,1.87576532 1.10128308,1.9074284 L1.27526493,2.0679653 L1.27526493,2.0679653 C1.28180274,2.09219208 1.29827505,2.11252736 1.32061661,2.12395254 C1.34790788,2.16810018 1.39386156,2.17733105 1.43941391,2.18756528 L1.43941391,2.18756528 C1.47954813,2.26101091 1.55359577,2.28910486 1.62322865,2.32261694 L1.7187481,2.40569478 L1.7187481,2.40569478 C1.80383265,2.47613034 1.87928499,2.5598102 1.98303196,2.60536254 C1.98340143,2.60663357 1.98394147,2.60784865 1.98463732,2.60897462 C2.01534,2.68522964 2.09400308,2.69446052 2.15460576,2.72937729 C2.15582468,2.73166543 2.15823511,2.73306503 2.16082656,2.73298937 L2.20457287,2.76569876 C2.20637891,2.80703701 2.24470709,2.81947862 2.26738292,2.8439605 C2.26831291,2.84839014 2.27129231,2.85211439 2.27540977,2.85399405 C2.31855406,2.90757324 2.36611311,2.95432961 2.44417418,2.94830948 L2.44417418,2.94830948 C2.46283659,2.97058397 2.46323793,3.00971484 2.50317148,3.01192222 L2.52424195,3.02697255 L2.54430906,3.04703966 L2.54430906,3.04703966 C2.59849026,3.11667254 2.65949428,3.17767656 2.74498018,3.20757656 L2.74498018,3.20757656 C2.75741411,3.23404918 2.77870889,3.25534395 2.80518151,3.26777789 C2.85394459,3.31955104 2.92759089,3.317745 2.98458149,3.35125707 L3.00906336,3.38597318 C3.02230766,3.45078995 3.07287678,3.48109128 3.1248506,3.50998793 L3.14612174,3.53005504 L3.32672574,3.66871878 L3.32672574,3.66871878 C3.34839822,3.724104 3.39334855,3.73473957 3.44592438,3.73052548 C3.51355055,3.81801809 3.60646127,3.87882143 3.68672972,3.95126371 C3.68331831,3.98818719 3.6646559,4.01006034 3.62652838,4.01026101 C3.59301631,4.01026101 3.56291564,4.01608048 3.54625994,4.05039524 C3.4860586,4.04638181 3.44592438,4.09554624 3.38933513,4.10858986 C3.17541972,4.15875764 2.96070163,4.20892542 2.76364259,4.3118697 C2.67916005,4.31969587 2.59387483,4.32471265 2.51822182,4.37006432 L2.51822182,4.37006432 C2.47266948,4.38310795 2.42310371,4.38310795 2.38236747,4.41220526 C2.22183058,4.43086767 2.07032389,4.4924737 1.91380042,4.53019987 L1.91380042,4.53019987 C1.89320157,4.52933846 1.87340838,4.53826772 1.8604219,4.55428041 C1.71172461,4.56692269 1.56643872,4.59200658 1.43680518,4.67247569 C1.41546989,4.66924611 1.39383989,4.67606105 1.37820922,4.69093744 C1.24456225,4.7328777 1.09927637,4.73588776 0.976866986,4.81314614 L0.976866986,4.81314614 L0.976866986,4.81154077 C0.871113309,4.83281191 0.764958289,4.8530797 0.671244879,4.91187633 L0.611043544,4.93194344 L0.611043544,4.93194344 C0.608949794,4.93006391 0.606113143,4.92924192 0.603338875,4.92971081 C0.600564608,4.9301797 0.598155659,4.93188828 0.596795895,4.9343515 C0.565087738,4.93451699 0.53512035,4.94887483 0.515122751,4.97348236 L0.515122751,4.97348236 C0.475991884,4.99535552 0.421007999,4.9857233 0.394720083,5.0336837 C0.342746264,5.07943671 0.268497951,5.05676088 0.214116079,5.09388503 C0.183171408,5.0982735 0.157827273,5.12069634 0.149700652,5.15087563 C0.125018104,5.18057495 0.13866374,5.20886958 0.152510047,5.23736488 L0.152510047,5.23736488 C0.162543603,5.28392058 0.110971126,5.30278366 0.0953187795,5.34392124 L0.155520114,5.33549306 C0.183814741,5.34853668 0.178396621,5.37261721 0.175587225,5.39569439 L0.115385891,5.44104606 C0.0585959655,5.45529371 0.108763744,5.51348833 0.075251668,5.5373682 L0.075251668,5.5373682 C0.0469570408,5.5554286 0.00341140895,5.55743531 0,5.61141584 L0.13324562,5.59736886 L0.136255687,5.59556282 L0.139065082,5.67583127 C0.132039249,5.69388412 0.121539844,5.71038318 0.108161731,5.72439368 C0.0830778415,5.75850777 0.094516095,5.7631232 0.154516758,5.73703596 C0.188630848,5.72860777 0.196457021,5.7617185 0.216122791,5.77616682 C0.236189902,5.80486279 0.271307347,5.79201984 0.296391236,5.80446145 C0.341542237,5.82613393 0.399134847,5.82452856 0.428834172,5.87489701 L0.428834172,5.87489701 C0.366224784,5.89396077 0.326893246,5.92165338 0.368632838,5.99529968 C0.37987042,6.01536679 0.37084022,6.04647081 0.371241562,6.07255806 L0.371241562,6.07255806 C0.322679152,6.08821041 0.264885871,6.08499967 0.235186546,6.13918087 C0.218731515,6.14058557 0.185219439,6.12734127 0.192844941,6.15443187 C0.200470444,6.18152247 0.232979164,6.17971643 0.256658356,6.15904731 L0.256658356,6.15904731 C0.307185735,6.17901976 0.362200184,6.18484727 0.41579055,6.17590368 L0.423616723,6.17951576 L0.432245581,6.17951576 L0.432245581,6.17951576 C0.456526786,6.20439898 0.450907995,6.23008488 0.434051621,6.25597146 L0.434051621,6.25597146 C0.381475789,6.30413253 0.42482075,6.3633305 0.415991221,6.41650835 L0.415991221,6.41650835 C0.419201959,6.51864995 0.485824769,6.61176134 0.450506652,6.72192979 C0.437262359,6.76326804 0.490640875,6.80701434 0.481610675,6.86239957 C0.47699524,6.89029285 0.508099262,6.89811903 0.54181201,6.88868748 C0.640341527,6.86059353 0.521744898,6.81062642 0.555056303,6.77731501 C0.588367708,6.74400361 0.632515353,6.75885327 0.669037496,6.74259891 C0.706763666,6.75805059 0.748101916,6.76748213 0.775393187,6.80280025 C0.790443521,6.84554319 0.762148894,6.87985795 0.753319365,6.91798547 C0.703552928,6.93624654 0.663218034,6.97136398 0.614053611,6.99223378 C0.568099926,7.01230089 0.546828788,7.06788679 0.502079129,7.09758611 C0.48060732,7.11183376 0.490841547,7.15076396 0.513316711,7.16762033 C0.557263685,7.2005304 0.617665691,7.20093174 0.650977096,7.16942637 C0.691111319,7.13230222 0.739272386,7.13109819 0.779205938,7.10541229 L0.775593858,7.10059618 L0.775593858,7.10059618 L0.779005267,7.10621497 C0.882752233,7.08614786 0.979676382,7.0413982 1.09004549,7.04320424 C1.16068173,7.04440827 1.24155219,7.06688343 1.30335889,7.00507673 L1.30335889,7.00507673 C1.51225752,6.96353781 1.71553736,6.90153043 1.92042257,6.84453984 C2.03039034,6.81403783 2.14818428,6.81082709 2.24771716,6.74560898 C2.33601245,6.73838482 2.41888962,6.70808348 2.50277014,6.68340093 C2.59287147,6.68600966 2.6781567,6.66192912 2.76364259,6.63704591 C2.8136097,6.62239691 2.86799157,6.60132645 2.91615264,6.60915262 C2.97067418,6.62170481 3.02777738,6.60462722 3.0664553,6.56420229 C3.20692508,6.49858284 3.37548882,6.52025532 3.50793176,6.42674258 L3.6257257,6.42192647 C3.63716395,6.52547277 3.69194717,6.52647612 3.76619548,6.48092378 C3.78626259,6.4578466 3.82639681,6.44520432 3.80813574,6.40206003 C3.85027668,6.400856 3.87034379,6.37256138 3.88619681,6.33884863 L3.88619681,6.33884863 C4.02205115,6.30031977 4.15770483,6.26159025 4.29355917,6.22386408 C4.31483031,6.21784395 4.33971353,6.20379697 4.3593793,6.22386408 C4.37904506,6.24393119 4.36299138,6.2668077 4.35536587,6.28807884 C4.3128236,6.4050701 4.31523165,6.53169357 4.26646857,6.64928684 C4.23476253,6.72574254 4.24640146,6.82166333 4.21509676,6.90433983 C4.15096339,7.07937666 4.0973554,7.25809231 4.05455987,7.43952969 C4.045329,7.47685452 4.04733571,7.49009881 4.08726926,7.48307532 C4.11777127,7.50434646 4.09971087,7.53705585 4.10733638,7.56334377 C4.11957731,7.61913034 4.09549678,7.67090349 4.08967732,7.72388066 C4.08724745,7.72497362 4.08545875,7.72712778 4.08483103,7.72971713 C4.08420331,7.73230649 4.08480697,7.73504061 4.08646658,7.73712496 C4.06017866,7.76742629 4.06639947,7.80455045 4.06419209,7.84006924 L4.06419209,7.84006924 C4.03208471,7.86796252 4.04412497,7.90709339 4.03750283,7.94180949 L4.03750283,7.94180949 C4.02626525,7.98615781 4.05255316,8.00863297 4.08666725,8.0264927 C4.11435986,8.13525645 4.05676725,8.23679603 4.06037933,8.34355306 L4.06037933,8.34355306 C4.0362988,8.36241615 4.04492766,8.38087789 4.06238605,8.39753359 C4.08385785,8.41760071 4.09369074,8.39231615 4.10793839,8.38469064 C4.14084845,8.35157991 4.15409275,8.30803428 4.17135046,8.26649536 L4.20586589,8.22335107 C4.23195314,8.22957187 4.21569878,8.27793361 4.25242159,8.27151213 C4.26350282,8.2700232 4.27352343,8.26415071 4.28023795,8.25521058 C4.28695247,8.24627046 4.2897995,8.23501021 4.28814105,8.22395308 L4.32827527,8.19585912 C4.37563366,8.25084301 4.31382695,8.31084367 4.33590077,8.36703158 C4.33503861,8.37353856 4.33307044,8.37985027 4.33008131,8.385694 C4.32533077,8.39155494 4.32196908,8.39841553 4.32024843,8.40576111 C4.29757259,8.44589533 4.26466253,8.48602956 4.33128534,8.52495975 L4.36539943,8.52977586 L4.36539943,8.52977586 C4.36539943,8.61787048 4.36861017,8.7059651 4.36740614,8.79405972 C4.36740614,8.83419394 4.37302493,8.86750534 4.40573432,8.89138521 C4.42764415,8.90899221 4.45934287,8.9070816 4.47897928,8.88697044 C4.49543431,8.87272279 4.50486585,8.8400134 4.53316048,8.85646843 C4.56145511,8.87292347 4.5504182,8.90342547 4.54580276,8.92911138 C4.53978263,8.96182077 4.53255847,8.99453016 4.52573565,9.02723955 L4.52573565,9.02723955 C4.49784236,9.11573551 4.51209001,9.15526772 4.57128799,9.15386303 C4.67162355,9.11533417 4.64774369,9.22108785 4.68747657,9.25279389 L4.68747657,9.25279389 C4.68747657,9.2707205 4.68747657,9.28858023 4.68747657,9.30637307 C4.65637255,9.35052072 4.62727523,9.39466836 4.67062019,9.44684285 L4.67062019,9.44684285 L4.68005174,9.44945158 L4.68948328,9.4472442 L4.68948328,9.4472442 C4.77175844,9.42316366 4.80868192,9.45005359 4.79383226,9.53834888 C4.79082219,9.55580727 4.78600609,9.5784831 4.8108893,9.58791465 L4.8108893,9.58791465 C4.83757856,9.5931321 4.86888326,9.58249653 4.88895037,9.61079115 C4.93068996,9.6292529 4.86446849,9.7181502 4.95176043,9.70711329 L4.95176043,9.70711329 C5.03403558,9.71253141 5.03724632,9.7633012 5.02038995,9.82611126 C5.01336646,9.8521985 5.00533961,9.88310186 5.03684498,9.89554347 C5.06333357,9.90597836 5.07216309,9.87266696 5.09002282,9.86062669 C5.17972281,9.80042536 5.21223153,9.70309987 5.25296777,9.6111925 C5.30112884,9.60256364 5.31497514,9.55099116 5.35450735,9.53092405 L5.35450735,9.53092405 C5.38824943,9.49896963 5.41017623,9.45653064 5.4167154,9.41052138 C5.48434156,9.28429925 5.52407445,9.14804356 5.55818853,9.00917915 L5.55818853,9.00917915 C5.64206906,8.88877648 5.65852409,8.7420859 5.71591603,8.61124833 L5.71591603,8.61124833 C5.73015738,8.60320831 5.73809594,8.5873312 5.73598314,8.57111411 L5.73598314,8.57111411 C5.78013079,8.43806916 5.83029857,8.30662958 5.86641937,8.17137725 C5.88829252,8.08930276 5.94086835,8.01585713 5.9356509,7.92635782 L5.9356509,7.92635782 C6.00673324,7.73057423 6.06137119,7.52920588 6.09899719,7.32434447 C6.1850851,7.1254794 6.21638979,6.91236667 6.25953408,6.70226402 L6.25953408,6.70226402 C6.31692602,6.59169423 6.33378239,6.46948552 6.36247836,6.35068822 C6.36829782,6.32660769 6.35184279,6.29048689 6.38615755,6.28105535 C6.42047231,6.27162381 6.44314815,6.29590501 6.46461996,6.32640702 C6.49008377,6.36576007 6.5291665,6.39433977 6.57438706,6.40667547 C6.64181255,6.4502211 6.67933805,6.52707813 6.75318502,6.56400162 L6.91512661,6.70326737 L6.91512661,6.70326737 L6.99700043,6.78534186 C7.0499776,6.8441385 7.09733598,6.90955728 7.17238698,6.94367137 C7.20389235,7.01671565 7.27894334,7.0428029 7.33392723,7.08955927 C7.4424903,7.18166731 7.53459834,7.29303978 7.66282719,7.36227131 C7.72102181,7.4457505 7.80108958,7.50534982 7.88115736,7.56494914 C7.89560568,7.65404711 7.97627547,7.66929812 8.0378815,7.70541892 C8.12457142,7.81277797 8.19841839,7.93017057 8.29875395,8.0264927 L8.29875395,8.0264927 C8.38444051,8.11739672 8.47474252,8.2022806 8.58651633,8.26107724 L8.58651633,8.26107724 C8.6124029,8.32127857 8.66136665,8.3453591 8.72437738,8.34576045 C8.74283912,8.35900474 8.7611002,8.38308527 8.77976261,8.38348662 C8.93448004,8.38729937 9.09000015,8.39372084 9.23729275,8.33552622 C9.24735759,8.33561808 9.25701417,8.33155216 9.26398201,8.32428864 L9.26398201,8.32428864 C9.30454777,8.31525432 9.33400312,8.28012183 9.33582227,8.23860207 C9.34445113,8.15371819 9.3599028,8.07043968 9.37595649,7.98655915 C9.4064585,7.83384843 9.48311487,7.69558604 9.50237929,7.54106928 C9.59549069,7.50254042 9.57060747,7.41685386 9.57783163,7.34581628 C9.58385177,7.28561495 9.57783163,7.22842368 9.62659471,7.17584785 C9.71729806,7.07731833 9.77107792,6.9615311 9.7371645,6.82146266 L9.7371645,6.82146266 L9.72693027,6.80139555 C9.78010812,6.76848549 9.76104436,6.72373583 9.74699738,6.67998952 L9.74559268,6.6787855 C9.76907121,6.68320026 9.77689738,6.67657811 9.78251617,6.65008953 C9.79877053,6.5738345 9.79315174,6.49296404 9.82826918,6.42052177 L9.8260618,6.41751171 C9.8545571,6.36052111 9.89087857,6.30272783 9.8094061,6.25697481 C9.74117792,6.08279229 9.59468801,5.97603525 9.45321487,5.87389366 C9.29729341,5.76071515 9.1626431,5.62726886 9.02779211,5.49261854 C9.02779211,5.45990915 9.01354446,5.41937358 8.98524983,5.42318633 C8.89434582,5.4352266 8.86223844,5.35576084 8.80464583,5.31863668 C8.72778879,5.26967293 8.66738679,5.19723066 8.5839076,5.15689576 L8.5463821,5.13401926 C8.51949217,5.04331591 8.40591232,5.02967028 8.37400562,4.93174277 C8.44805326,4.90665888 8.52410761,4.88478573 8.5971519,4.85548775 C8.67340692,4.82498574 8.76029751,4.82498574 8.8291277,4.77421595 C8.869812,4.746395 8.91833481,4.73233042 8.96759077,4.73408172 C9.02650375,4.73615023 9.08396486,4.71553606 9.12812766,4.67648911 C9.1987639,4.67207435 9.28083838,4.69374683 9.31174173,4.59762537 C9.36913367,4.58056832 9.43475313,4.62130456 9.48793097,4.57314349 C9.60231351,4.57555154 9.70004034,4.50250726 9.81402153,4.50090189 C9.83408865,4.50090189 9.84653026,4.47983142 9.8517477,4.45896163 C9.94786917,4.44611868 9.95449132,4.3646462 9.97716715,4.295214 L9.97716715,4.295214 C9.99723426,4.28919386 9.9942242,4.27314017 9.99723426,4.2562838 C10.0112812,4.15213549 9.96833762,4.05942544 9.94666514,3.9631033 Z M9.6045001,6.15808356 L9.6045001,6.15808356 C9.57998108,6.14586978 9.5576742,6.12964659 9.53850009,6.11008356 C9.56146062,6.12471935 9.58350199,6.14074944 9.6045001,6.15808356 L9.6045001,6.15808356 Z M4.99529935,9.54878378 L4.99529935,9.54878378 L4.99529935,9.54878378 L5.01329935,9.54878378 L4.99329935,9.56478378 L4.99529935,9.54878378 Z M9.35125315,8.14427928 C9.3293127,8.14656847 9.3071936,8.14656847 9.28525315,8.14427928 L9.31125315,8.08227927 L9.35125315,8.14427928 Z M0.273995943,5.32435482 C0.273995943,5.29635482 0.251995943,5.26835481 0.237995942,5.23435481 C0.252651158,5.25475439 0.270163719,5.27294051 0.289995944,5.28835482 C0.284899973,5.30078594 0.27888326,5.31281937 0.271995943,5.32435482 L0.273995943,5.32435482 Z M3.83209548,6.25424529 C3.81869292,6.24373499 3.80660578,6.23164785 3.79609548,6.21824529 L3.85209548,6.23824529 L3.83209548,6.25424529 Z M2.26712053,6.30744866 L2.12912053,6.30744866 C2.19112053,6.25944866 2.24712053,6.20944865 2.30312053,6.15944865 C2.30641464,6.21129191 2.29385875,6.26291056 2.26712053,6.30744866 L2.26712053,6.30744866 Z M3.81954044,6.03703927 L3.80954044,6.03703927 L3.80954044,6.03703927 L3.82754044,6.04703927 L3.81954044,6.03703927 Z M3.87586863,2.16408676 L3.84786862,2.20408676 L3.87586863,2.16408676 Z M8.73958141,3.03776853 L8.73958141,3.03776853 L8.72558141,3.02576853 L8.73958141,3.03776853 Z M9.45632494,3.90992546 L9.45632494,3.90992546 L9.42632494,3.92192546 C9.42632494,3.92192546 9.42632494,3.92192546 9.42632494,3.92192546 L9.45632494,3.90992546 Z M4.52907324,5.66114201 L4.50707324,5.66114201 L4.50707324,5.64914201 L4.52907324,5.66114201 Z M2.14054051,6.34842919 C2.08634904,6.35998888 2.03281083,6.38175012 1.9806239,6.41342919 C2.0382212,6.33397667 2.09978499,6.26694339 2.16430521,6.21342918 C2.18361402,6.28042918 2.19599147,6.34642919 2.14054051,6.34842919 Z M3.48792438,2.33401493 C3.47890909,2.33852617 3.47077946,2.34462339 3.46392438,2.35201493 L3.44592438,2.35201493 C3.46080594,2.34331047 3.47486398,2.33326901 3.48792438,2.32201493 C3.48792438,2.32201493 3.47592438,2.33001493 3.47592438,2.33401493 L3.48792438,2.33401493 Z M5.65978786,7.22795391 L5.63778786,7.22795391 L5.61778786,7.2079539 C5.61778786,7.1699539 5.63978786,7.1299539 5.65578786,7.0879539 C5.65531577,7.13494525 5.65063033,7.18179959 5.64178786,7.22795391 L5.65978786,7.22795391 Z M2.55486323,5.91243789 L2.49886323,5.89843789 C2.46886323,5.85843789 2.51086323,5.87843789 2.53686323,5.91243789 L2.55486323,5.91243789 Z M0.839607944,5.90018157 C0.866255624,5.9119645 0.893647812,5.92198603 0.921607947,5.93018157 L0.921607947,5.93018157 L0.839607944,5.90018157 Z M0.8354603,5.79643461 L0.8354603,5.79643461 C0.825001493,5.81820851 0.811536671,5.83840574 0.795460299,5.85643461 L0.8354603,5.79643461 Z M8.44504319,6.09724061 L8.48304319,6.10924061 L8.45304319,6.13924061 C8.45104319,6.12524061 8.44704319,6.11324061 8.44504319,6.09724061 Z M8.61563269,6.53483521 C8.51159862,6.38459597 8.55398287,6.38746679 8.727373,6.34344765 L8.75948228,6.33483521 C8.71966677,6.38938066 8.6734294,6.45253856 8.61563269,6.53483521 Z M7.82677549,5.78124939 L7.82677549,5.78124939 C7.8461304,5.75042703 7.86031742,5.71664842 7.86877549,5.68124939 C7.86524498,5.7174729 7.85057148,5.75171108 7.82677549,5.77924939 L7.82677549,5.78124939 Z M7.26128428,4.03032813 L7.38928429,4.03032813 C7.34903662,4.04316893 7.30741656,4.05122442 7.26528429,4.05432813 C7.26528429,4.05432813 7.26128428,4.03032813 7.26128428,4.03032813 Z M8.34845129,6.23967857 C8.27638021,6.17842499 8.20951427,6.11208555 8.14845128,6.04125337 C8.20850439,6.06029436 8.26551633,6.08678022 8.31794281,6.11999353 C8.32427156,6.16116546 8.33448028,6.20174134 8.34845129,6.24125337 L8.34845129,6.23967857 Z M6.21939986,2.0818116 L6.23339986,2.0818116 L6.23339986,2.0818116 L6.22139986,2.0818116 L6.21939986,2.0818116 Z M6.67652866,4.1042751 C6.70463445,4.09273444 6.73334291,4.08271987 6.76252866,4.0742751 C6.74563528,4.09231818 6.73025036,4.11171656 6.71652866,4.1322751 L6.67652866,4.1042751 Z M5.49374494,7.68889479 C5.45854267,7.61843686 5.41565744,7.55142869 5.36574494,7.48889479 C5.41122813,7.51449339 5.4506689,7.54818212 5.48174494,7.58797736 C5.50068023,7.61867755 5.50501964,7.65517109 5.49374494,7.68889479 L5.49374494,7.68889479 Z M4.75686851,4.74993474 L4.81686851,4.78793474 L4.81686851,4.78793474 C4.79444857,4.77651743 4.769965,4.76971644 4.74486851,4.76793474 L4.75686851,4.74993474 Z M5.56300464,4.16798851 L5.60500464,4.18798851 C5.65100464,4.26398851 5.56900464,4.20998851 5.57300464,4.17198851 L5.56300464,4.16798851 Z M5.55450263,4.81834346 L5.54250263,4.83034346 L5.53250263,4.83034346 L5.55050263,4.81234346 L5.55450263,4.81834346 Z M5.84686636,4.94652334 C5.82286636,4.87934777 5.79286636,4.81217219 5.76086636,4.74652333 L5.77286636,4.74652333 C5.81326364,4.80485975 5.83839778,4.86864145 5.84686636,4.9343096 L5.84686636,4.94652334 Z M6.11573276,3.39752486 L6.07973276,3.37152486 L6.10773276,3.37152486 L6.11573276,3.39752486 Z M6.07431464,2.97715243 C6.11255933,3.01236413 6.1540814,3.04384053 6.19831465,3.07115243 L6.19831465,3.07115243 C6.15138631,3.0413243 6.10952532,3.00418955 6.07431464,2.96115243 L6.07431464,2.97715243 Z M5.09792439,4.57512336 L5.10992439,4.57512336 C5.10412666,4.5926565 5.10412666,4.61159022 5.10992439,4.62912336 C5.1599244,4.74312336 4.98592439,4.57712336 5.10592439,4.56712336 L5.09792439,4.57512336 Z M5.7052402,4.99028505 L5.69324019,4.97428505 L5.7212402,4.97428505 L5.7052402,4.99028505 Z M5.85495427,3.60069127 L5.87695427,3.63469127 L5.84695427,3.60669127 L5.85495427,3.60069127 Z M5.19116107,4.56826698 C5.19116107,4.56826698 5.19116107,4.55626698 5.19116107,4.55026698 L5.22516107,4.56826698 L5.19116107,4.56826698 Z M5.86557642,3.60891878 L5.86557642,3.60891878 L5.85357642,3.60891878 L5.86557642,3.60891878 Z M4.94966515,4.50655291 L4.80366514,4.41255291 C4.84966515,4.41255291 4.89566515,4.40055291 4.94166515,4.39655291 C4.94115161,4.43338176 4.94382827,4.47018591 4.94966515,4.50655291 L4.94966515,4.50655291 Z M5.79477978,5.62601785 L5.81277978,5.61201785 L5.81277978,5.62601785 L5.79477978,5.62601785 Z M4.88111011,4.59811934 C4.85911011,4.56811934 4.83711011,4.53811934 4.81711011,4.50611934 C4.85143675,4.52573494 4.87552836,4.55931719 4.88311011,4.59811934 L4.88111011,4.59811934 Z M5.00550002,7.86314642 L4.99350002,7.86314642 L4.99350002,7.86314642 L5.00550002,7.86314642 Z M5.95104889,2.48128739 L5.93504889,2.48128739 L5.93504889,2.46328739 L5.95104889,2.48128739 Z M5.89872742,5.67466013 C5.96187343,5.64618412 6.02960988,5.62925001 6.09872742,5.62466013 C6.07129037,5.66444117 6.03315379,5.69564382 5.98872742,5.71466014 L5.89872742,5.67466013 Z M7.19787221,4.98552263 L7.21187221,4.98552263 L7.20187221,4.98552263 L7.19787221,4.98552263 Z M7.28115073,5.13281523 L7.28115073,5.13281523 L7.28115073,5.13281523 C7.28115073,5.13281523 7.28315073,5.14481523 7.28315073,5.13281523 L7.28115073,5.13281523 Z M7.67470572,5.67711826 C7.61026606,5.68212961 7.54583726,5.66705596 7.48663795,5.63311825 L7.53668824,5.61911825 C7.68835581,5.59111825 7.70352256,5.62311825 7.67470572,5.67711826 Z M7.75493523,4.69981328 C7.78532762,4.67496075 7.82202417,4.65903583 7.86093523,4.65381328 C7.82682717,4.67182838 7.79139035,4.68720662 7.75493523,4.69981328 L7.75493523,4.69981328 Z M7.83735737,4.07378651 L7.82135737,4.07378651 L7.83935737,4.04778651 C7.83935737,4.04778651 7.83935737,4.07378651 7.83735737,4.07378651 L7.83735737,4.07378651 Z M6.62837903,1.97269283 C6.57028735,1.98278631 6.5113031,1.98680796 6.45237902,1.98469283 L6.60837903,1.92669283 L6.62837903,1.97269283 Z M4.8331638,6.47711103 C4.8331638,6.47711103 4.8331638,6.49111103 4.8331638,6.49911103 L4.8331638,6.49911103 L4.8331638,6.47711103 Z M7.7648943,5.91090306 C7.7348943,5.87890306 7.7048943,5.84690306 7.6828943,5.81690306 L7.7288943,5.81690306 C7.74398157,5.84393971 7.75541468,5.87285874 7.7628943,5.90290306 L7.7648943,5.91090306 Z M6.42689379,1.80573314 C6.43689379,1.74773314 6.44289379,1.69173314 6.44889379,1.63973314 C6.47014344,1.65642092 6.49372834,1.66989801 6.51889379,1.67973314 L6.42689379,1.80573314 Z M5.74351469,2.31175386 C5.74473941,2.32773042 5.74473941,2.34377729 5.74351469,2.35975386 C5.73513352,2.34062609 5.7257882,2.32193545 5.71551469,2.30375385 L5.74351469,2.31175386 Z M6.90049038,5.35888377 C6.89623294,5.29269993 6.87743999,5.22700274 6.84449038,5.16311657 L6.87849038,5.18428059 C7.03849039,5.28480969 7.00649039,5.32713774 6.90049038,5.36311658 L6.90049038,5.35888377 Z M7.65841242,5.89943192 C7.67234889,5.88591176 7.68506489,5.87118797 7.69641242,5.85543191 L7.71841242,5.85543191 L7.68841242,5.86943191 L7.66241242,5.90143192 L7.65841242,5.89943192 Z M8.00135264,5.70716214 C8.00135264,5.69116214 8.00135264,5.67116214 8.00135264,5.65516214 L8.03935265,5.65516214 C8.02967388,5.67796997 8.01614319,5.69894255 7.99935264,5.71716214 L8.00135264,5.70716214 Z M4.78524168,4.46177102 C4.74524168,4.51777102 4.71124168,4.56777103 4.67924168,4.61777103 C4.65924168,4.59177103 4.63924168,4.56577103 4.61724168,4.53977103 C4.67124168,4.51377102 4.72724168,4.48577102 4.78524168,4.46177102 Z M5.44942479,7.19370758 L5.53142479,7.22770758 C5.51888912,7.23997035 5.50750785,7.25336008 5.49742479,7.26770758 C5.48142479,7.24370758 5.46542479,7.21970758 5.44942479,7.19370758 Z M5.73598314,6.68998281 L5.73598314,6.68998281 L5.73598314,6.68998281 C5.75958573,6.687754 5.78298586,6.68374255 5.80598314,6.67798281 C5.78409633,6.68802134 5.7599638,6.69215834 5.73598314,6.68998281 L5.73598314,6.68998281 Z M6.94903266,5.17997294 L6.94903266,5.17997294 L6.88703266,5.26197294 C6.90347547,5.23168846 6.92437546,5.20404655 6.94903266,5.17997294 L6.94903266,5.17997294 Z M8.55289687,6.2543124 L8.52089687,6.2383124 L8.55689687,6.2383124 L8.55289687,6.2543124 Z M8.21266604,3.87480801 L8.22866604,3.87480801 L8.22866604,3.88680801 L8.22866604,3.88680801 C8.22866604,3.88680801 8.21266604,3.88280801 8.21266604,3.87480801 Z M6.99873936,3.67718657 C6.99119941,3.66156458 6.9845227,3.64554047 6.97873936,3.62918657 L6.99273936,3.62918657 C6.99473936,3.64518657 6.99673936,3.66118657 7.00073936,3.67718657 L6.99873936,3.67718657 Z M6.78007495,3.44838189 L6.79807495,3.44838189 L6.79807495,3.47238189 L6.78007495,3.44838189 Z M6.72951269,2.78894239 L6.68151269,2.78894239 C6.6773976,2.76579049 6.6773976,2.74209429 6.68151269,2.71894239 C6.69713385,2.74126391 6.71116837,2.76465477 6.72351269,2.78894239 L6.72951269,2.78894239 Z M5.67457778,2.11512301 C5.68657778,2.13112301 5.69657778,2.14912301 5.70657778,2.16712301 L5.70657778,2.16712301 L5.68657778,2.16712301 L5.67457778,2.11512301 Z M5.17390335,8.74609932 C5.17390335,8.74609932 5.17390335,8.75609932 5.17390335,8.76209932 L5.17390335,8.76209932 L5.17390335,8.74609932 Z M5.33223286,8.21492288 C5.37273245,8.2166179 5.41057709,8.23554022 5.43623286,8.26692288 C5.40982901,8.28325952 5.38244381,8.29795401 5.35423286,8.31092288 C5.35023286,8.27292288 5.34223286,8.24292288 5.33623286,8.21492288 L5.33223286,8.21492288 Z M8.47499621,6.4555144 C8.50899622,6.34314528 8.55899622,6.43800233 8.60499622,6.4555144 C8.54369097,6.50200715 8.4856181,6.5507129 8.43099621,6.60144833 L8.47499621,6.4555144 Z M8.56262238,6.02987529 L8.49862238,6.02987529 C8.51862238,6.01787529 8.54262238,6.00787529 8.56462238,5.99587528 C8.58662238,5.98387528 8.56462238,6.01587529 8.56462238,6.02787529 L8.56262238,6.02987529 Z M8.18397007,3.1198363 L8.19597007,3.1058363 L8.19597007,3.1058363 L8.18397007,3.1198363 Z M7.68229228,3.5954 L7.80429229,3.5734 C7.76629229,3.5974 7.73229229,3.6154 7.69829228,3.6354 C7.69576074,3.62231558 7.69173434,3.60956531 7.68629228,3.5974 L7.68229228,3.5954 Z M6.07471598,1.51333652 C6.07471598,1.49533652 6.07471598,1.47933652 6.07471598,1.46133652 L6.09071598,1.46133652 C6.08721111,1.47982852 6.08185067,1.49792001 6.07471598,1.51533652 L6.07471598,1.51333652 Z M4.9276262,8.34868998 L4.9116262,8.32468998 L4.9356262,8.32468998 L4.9276262,8.34868998 Z M5.01919868,8.54942821 L4.96319868,8.54942821 C4.96519868,8.54542821 4.98919868,8.54542821 5.01319868,8.54542821 L5.01919868,8.54942821 Z M5.07956779,8.80369193 L5.09756779,8.81969193 L5.08156779,8.83169193 C5.07556779,8.82969193 5.07556779,8.81369193 5.07356779,8.80369193 L5.07956779,8.80369193 Z M6.37592333,5.61302121 C6.38733647,5.62324829 6.39682032,5.6354418 6.40392333,5.64902121 L6.40392333,5.64902121 L6.37592333,5.61302121 Z M8.64531296,3.239443 L8.64531296,3.227443 L8.65931296,3.227443 L8.64531296,3.239443 Z M4.61182356,2.6564867 L4.61182356,2.6424867 L4.61182356,2.6604867 L4.61182356,2.6564867 Z M4.55455176,2.62596455 L4.53055176,2.60596455 L4.53055176,2.60596455 L4.53055176,2.60596455 L4.55455176,2.62596455 Z M1.36388103,6.39343117 C1.41290203,6.40091778 1.46067461,6.4150477 1.50588104,6.43543117 C1.45788104,6.43543117 1.40388104,6.43543117 1.33988103,6.43543117 C1.35181959,6.42077244 1.3652223,6.40736973 1.37988103,6.39543117 L1.36388103,6.39343117 Z M3.93014378,5.37482459 L3.93014378,5.37482459 L3.93014378,5.38682459 L3.93014378,5.38682459 L3.93014378,5.37482459 Z M4.78555777,8.28274972 L4.78555777,8.30074972 L4.77155776,8.30074972 L4.78555777,8.28274972 Z M6.27766093,5.62365678 C6.31463302,5.65414663 6.34697181,5.68985405 6.37366093,5.72965678 C6.32808764,5.73158879 6.28267208,5.73626392 6.23766093,5.74365678 C6.25166093,5.70765678 6.26566093,5.66565678 6.27766093,5.62365678 Z M8.13296605,3.00690544 L8.12296605,3.00690544 L8.12296605,3.00690544 L8.13296605,3.00690544 Z M6.16561411,0.859724514 L6.20761411,0.921724516 L6.20761411,0.921724516 C6.20761411,0.921724516 6.08561411,0.977724518 6.14961411,0.895724515 L6.16561411,0.859724514 Z M5.70728717,0.925892293 L5.73928717,0.909892292 L5.73928717,0.939892293 L5.70728717,0.925892293 Z M5.49850197,1.39586404 C5.48925408,1.39153859 5.48053082,1.38617043 5.47250197,1.37986404 L5.50050197,1.37986404 C5.50050197,1.37986404 5.49850197,1.38386404 5.49850197,1.39586404 Z M3.4387868,3.10523429 C3.4387868,3.10523429 3.4387868,3.12323429 3.4387868,3.13123429 L3.4047868,3.13123429 L3.4387868,3.10523429 Z M3.79720555,3.14935509 L3.81320555,3.20935509 L3.76920555,3.20935509 C3.78320555,3.18335509 3.79120555,3.16135509 3.80120555,3.14135509 L3.79720555,3.14935509 Z M3.83733977,4.29220393 L3.80933977,4.30420393 L3.80933977,4.30420393 L3.80933977,4.30420393 L3.83733977,4.29220393 Z M8.24136201,6.82979018 L8.38736201,6.79979018 L8.35336201,6.82779018 C8.31736201,6.82579018 8.28136201,6.82379018 8.24336201,6.82779018 L8.24136201,6.82979018 Z M8.78999684,7.68682296 L8.78999684,7.67682296 L8.88199684,7.64682295 C8.85205632,7.66118081 8.82134248,7.67386696 8.78999684,7.68482296 L8.78999684,7.68682296 Z M7.61601042,3.64403623 L7.66001042,3.64403623 L7.59801042,3.64403623 L7.61601042,3.64403623 Z M6.85639643,1.03258222 L6.81639642,0.996582214 L6.84039642,0.996582214 L6.86239643,1.02658221 L6.85639643,1.03258222 Z M3.04538484,2.88650277 L3.06338484,2.88650277 L3.05338484,2.88650277 L3.04538484,2.88650277 Z M0.88666499,5.25442193 L0.856664989,5.28642193 C0.856664989,5.27642193 0.866664989,5.26442193 0.872664989,5.25442193 L0.88666499,5.25442193 Z M1.03197101,5.42940714 L1.00797101,5.44340714 C1.00797101,5.44340714 1.00797101,5.44340714 1.00797101,5.44340714 L1.00797101,5.44340714 L1.03197101,5.42940714 Z M0.558267041,5.53661854 C0.558267041,5.53661854 0.558267041,5.53661854 0.558267041,5.52461854 C0.580520709,5.50516787 0.608738065,5.49388093 0.638267044,5.49261854 L0.558267041,5.53661854 Z M1.56314074,6.17008422 C1.58407857,6.18326719 1.60238849,6.20022082 1.61714074,6.22008422 C1.59167599,6.20333105 1.56492589,6.1886185 1.53714074,6.17608422 L1.56314074,6.17008422 Z M4.82731865,8.69294095 L4.79531865,8.70894095 C4.79192616,8.68573092 4.79192616,8.66215097 4.79531865,8.63894095 C4.8044447,8.65676401 4.81445723,8.67411906 4.82531865,8.69094095 L4.82731865,8.69294095 Z M7.01340177,6.03203526 C7.00912698,6.01308225 7.00378514,5.99438581 6.99740177,5.97603525 L7.02740177,5.97603525 C7.02389682,5.99497329 7.01922118,6.01367583 7.01340177,6.03203526 L7.01340177,6.03203526 Z M9.12612095,6.97232707 L9.12612095,6.96032707 L9.12612095,6.96032707 C9.12612095,6.96032707 9.12612095,6.96032707 9.12612095,6.96032707 L9.14412095,6.97632707 L9.12612095,6.97232707 Z M8.41694923,5.51529437 L8.46494924,5.51529437 L8.49494924,5.53529437 C8.49494924,5.53529437 8.49494924,5.54729438 8.49494924,5.55129438 L8.41694923,5.51529437 Z M8.31524121,4.84525352 C8.30294159,4.911263 8.26287846,4.96880822 8.20524121,5.00325353 C8.23924121,4.96125353 8.27524121,4.90925352 8.31324121,4.84925352 L8.31524121,4.84525352 Z M9.38639139,4.21093213 L9.39839139,4.21093213 L9.41039139,4.21093213 L9.42239139,4.23893213 C9.40995452,4.23017448 9.39794096,4.2208306 9.38639139,4.21093213 Z M9.45882695,3.57079127 L9.52482695,3.57079127 C9.51611038,3.58035636 9.50376796,3.58580741 9.49082695,3.58580741 C9.47788595,3.58580741 9.46554352,3.58035636 9.45682695,3.57079127 L9.45882695,3.57079127 Z M8.95394514,3.50858323 C9.01939969,3.52058323 9.08606635,3.52858323 9.15394514,3.53658323 C9.0869443,3.55636582 9.01796813,3.54670916 8.95394514,3.50858323 Z M8.72598275,3.04316651 C8.72598275,3.04316651 8.72598275,3.03116651 8.72598275,3.02516651 L8.74598275,3.04516651 L8.72598275,3.04316651 Z M5.4922409,1.81601567 L5.4542409,1.81601567 C5.4548179,1.8053568 5.4548179,1.79467453 5.4542409,1.78401567 L5.4922409,1.81601567 Z M2.08396953,2.36475787 L2.08396953,2.36475787 L2.10396953,2.36475787 L2.08796953,2.37675787 L2.08396953,2.36475787 Z M3.80933977,3.51757987 L3.80933977,3.50757987 L3.81933977,3.50757987 L3.80933977,3.51757987 Z M3.76964549,4.30473883 C3.76899348,4.29408213 3.76899348,4.28339554 3.76964549,4.27273883 L3.76964549,4.30473883 Z M2.96531706,4.84740722 L2.96531706,4.83140722 L2.96531706,4.84540722 L2.96531706,4.84740722 Z M2.34504265,4.70873676 L2.34504265,4.70873676 L2.34504265,4.69073676 L2.39304265,4.71873677 L2.34504265,4.70873676 Z M0.559069726,5.58629168 L0.559069726,5.58629168 L0.559069726,5.58629168 L0.559069726,5.58629168 L0.559069726,5.58629168 L0.559069726,5.58629168 C0.559069726,5.58629168 0.559069726,5.58629168 0.559069726,5.57429168 L0.559069726,5.58629168 Z M1.15332335,6.51864995 L1.19132335,6.51864995 C1.1737811,6.57261255 1.14742464,6.62329806 1.11332334,6.66864995 C1.11932334,6.62264995 1.13132334,6.57464995 1.14332335,6.51864995 L1.15332335,6.51864995 Z M1.34161325,6.69925395 C1.33892915,6.71820619 1.331346,6.73612999 1.31961325,6.75125395 C1.32116175,6.73863461 1.32116175,6.72587329 1.31961325,6.71325395 L1.34161325,6.69925395 Z M3.60947134,5.81575206 C3.61883645,5.80018158 3.62954381,5.78545896 3.64147134,5.77175206 L3.60947134,5.81575206 Z M4.08408471,5.50475881 L4.03208471,5.53675881 C4.03208471,5.51475881 4.03208471,5.49475881 4.03208471,5.47475881 C4.04529383,5.48473934 4.05736627,5.49614109 4.06808471,5.50875881 L4.08408471,5.50475881 Z M8.20584322,7.03131767 L8.20584322,7.04131767 L8.20584322,7.04131767 C8.20896332,7.03290716 8.21298687,7.02486006 8.21784322,7.01731767 L8.20584322,7.03131767 Z M9.21798135,7.81873155 L9.21798135,7.7946714 C9.26901014,7.74547737 9.28121176,7.67953818 9.24998135,7.62173907 L9.24998135,7.62173907 C9.3058217,7.68730673 9.28586413,7.77407876 9.20398135,7.82173907 L9.21798135,7.81873155 Z M5.92191131,0.258915196 L5.89391131,0.258915196 L5.91391131,0.258915196 L5.91391131,0.258915196 L5.92191131,0.258915196 Z M5.85714562,0.825139988 C5.77475121,0.808461011 5.71699235,0.772442767 5.70514561,0.730353255 C5.70329349,0.690716845 5.73667881,0.652536646 5.79714561,0.62513998 C5.79405874,0.692840321 5.81363499,0.76034463 5.85514562,0.825139988 L5.85714562,0.825139988 Z M4.11538269,2.16185858 L4.06138269,2.09585858 C4.08724008,2.10464826 4.11413369,2.11002699 4.14138269,2.11185858 C4.12938269,2.12985858 4.12138269,2.14585858 4.11338269,2.16185858 L4.11538269,2.16185858 Z M1.79355816,2.0637512 L1.79355816,2.0637512 L1.79355816,2.0757512 L1.78155816,2.0757512 L1.79355816,2.0637512 Z M2.30450708,2.60556321 L2.31850708,2.60556321 L2.30450708,2.61756321 L2.30450708,2.61756321 L2.30450708,2.61756321 L2.30450708,2.60556321 Z M3.79846997,3.54871745 L3.79846997,3.54871745 L3.81446998,3.54871745 L3.78846997,3.56471745 L3.79846997,3.54871745 Z M2.58544664,4.63234147 L2.58544664,4.63234147 L2.58544664,4.63234147 L2.60544664,4.65634147 L2.58544664,4.63234147 Z M0.390659683,5.43502593 L0.426659684,5.43502593 C0.416040622,5.47228833 0.399130456,5.50746147 0.376659682,5.53902593 C0.386659683,5.50502593 0.390659683,5.46902593 0.396659683,5.43502593 L0.390659683,5.43502593 Z M3.89293843,6.22366341 L3.91493843,6.22366341 L3.91493843,6.22366341 C3.88832592,6.25326001 3.84669545,6.26425674 3.80893843,6.25166341 L3.89293843,6.22366341 Z M6.67251523,5.88874332 C6.7248023,5.92561905 6.77303558,5.96717808 6.81651524,6.0128174 C6.77883126,6.04469271 6.73554154,6.07037093 6.68851523,6.08874333 C6.68851523,6.0128174 6.68451523,5.94615073 6.67251523,5.88874332 Z M7.16034671,6.19577012 C7.16034671,6.19577012 7.16034671,6.19577012 7.16034671,6.20977012 L7.16034671,6.20977012 L7.16034671,6.19577012 Z M9.30491892,6.05409632 L9.31691892,6.05409632 C9.31691892,6.06409632 9.31691892,6.07609632 9.33091892,6.08809632 L9.33091892,6.08809632 L9.30491892,6.05409632 Z M8.68399551,5.5405917 C8.68399551,5.5205917 8.67399551,5.50459169 8.66999551,5.48459169 L8.71599551,5.51459169 C8.70615882,5.52269999 8.69680923,5.53138175 8.68799551,5.5405917 L8.68399551,5.5405917 Z M9.89259066,4.19327307 L9.89259066,4.19327307 C9.88159063,4.20681007 9.87219475,4.22157502 9.86459066,4.23727307 L9.86459066,4.24927307 C9.87301545,4.22941169 9.88375651,4.21061483 9.89659066,4.19327307 L9.89259066,4.19327307 Z M9.49114171,3.48437463 L9.49114171,3.48437463 C9.55324787,3.44617022 9.62351492,3.43492749 9.69114172,3.45237463 C9.62355471,3.44933723 9.55602355,3.46014221 9.49114171,3.48437463 Z M2.67223657,4.60654148 L2.64223657,4.57254148 L2.66423657,4.57254148 L2.67623657,4.59254148 L2.67623657,4.59254148 C2.67623657,4.59254148 2.68023657,4.59854148 2.68223657,4.60654148 L2.67223657,4.60654148 Z M8.68524651,8.1968155 L8.69724652,8.1828155 L8.69724652,8.1828155 L8.69724652,8.1828155 L8.69724652,8.1828155 L8.68524651,8.1968155 Z M9.46786386,6.14997013 L9.46786386,6.14997013 L9.48186386,6.13597013 L9.46786386,6.14997013 Z M9.0766989,4.63186734 C9.0766989,4.54436733 9.09593882,4.47561733 9.15803129,4.47561733 C9.23936367,4.47561733 9.28833801,4.53342983 9.27172172,4.67561734 C9.20738473,4.64735688 9.14115652,4.63526127 9.07494982,4.63967984 L9.0766989,4.63186734 Z M3.64852839,1.96494048 L3.64852839,1.96494048 L3.62652838,1.95094048 L3.64052839,1.94094048 L3.64852839,1.96494048 Z M3.06118417,3.38818056 L3.04518417,3.40218056 C3.04518417,3.40218056 3.04518417,3.40218056 3.04518417,3.40218056 L3.05918417,3.39018056 L3.06118417,3.38818056 Z M3.29883245,6.36369829 L3.32683246,6.35369829 L3.30883245,6.39369829 L3.29883245,6.36369829 Z M4.85515038,9.44483614 L4.87115038,9.47883614 L4.82915037,9.47883614 L4.85515038,9.44483614 Z M7.18967088,3.00541955 L7.17567088,3.00541955 L7.13767088,2.92141955 L7.18967088,3.00541955 Z M6.61411994,0.509265503 L6.61411994,0.509265503 L6.63411994,0.483265502 C6.62692474,0.491512467 6.62024537,0.50019564 6.61411994,0.509265503 Z M2.10800979,1.48481504 L2.12800979,1.48481504 L2.09600979,1.49881504 L2.10800979,1.48481504 Z M0.296591908,5.76063461 C0.296591908,5.76063461 0.296591908,5.74463461 0.296591908,5.73663461 L0.316591908,5.73663461 L0.296591908,5.76063461 Z M4.52854505,9.08901204 L4.60654505,9.01901204 C4.587706,9.04926729 4.56065473,9.07354407 4.52854505,9.08901204 L4.52854505,9.08901204 Z M6.09012068,7.33392971 L6.07612068,7.33392971 L6.07612068,7.33392971 L6.07612068,7.33392971 L6.07612068,7.31992971 L6.09212068,7.33592971 L6.09012068,7.33392971 Z M7.74048691,7.40852568 L7.74048691,7.37852567 L7.75448691,7.41452568 L7.74048691,7.40852568 Z M8.66136665,8.30416113 L8.67736665,8.28616113 C8.67800809,8.29348043 8.67800809,8.30084182 8.67736665,8.30816113 L8.67736665,8.29216113 L8.67736665,8.30816113 L8.66536665,8.30816113 L8.66136665,8.30416113 Z" id="Shape"></path>
        </g>
    </g>
</svg>